<mxfile host="65bd71144e">
    <diagram id="_ZblyaMK2NyxgQTQAOEP" name="Page-1">
        <mxGraphModel dx="1205" dy="790" grid="1" gridSize="10" guides="1" tooltips="1" connect="1" arrows="1" fold="1" page="1" pageScale="1" pageWidth="850" pageHeight="1100" math="0" shadow="0">
            <root>
                <mxCell id="0"/>
                <mxCell id="1" parent="0"/>
                <mxCell id="6" value="" style="rounded=0;whiteSpace=wrap;html=1;fillColor=none;" parent="1" vertex="1">
                    <mxGeometry x="120" y="80" width="560" height="680" as="geometry"/>
                </mxCell>
                <mxCell id="7" value="" style="rounded=0;whiteSpace=wrap;html=1;fillColor=none;" parent="1" vertex="1">
                    <mxGeometry x="240" y="160" width="320" height="260" as="geometry"/>
                </mxCell>
                <mxCell id="3" value="" style="ellipse;shape=cloud;whiteSpace=wrap;html=1;fillColor=#99004D;fillStyle=zigzag-line;" parent="1" vertex="1">
                    <mxGeometry x="330" y="250" width="140" height="140" as="geometry"/>
                </mxCell>
                <mxCell id="8" value="" style="rounded=0;whiteSpace=wrap;html=1;fillStyle=zigzag-line;fillColor=none;" parent="1" vertex="1">
                    <mxGeometry x="120" y="80" width="560" height="40" as="geometry"/>
                </mxCell>
                <mxCell id="9" value="&lt;font style=&quot;font-size: 16px;&quot;&gt;NAME NAME NAME&lt;/font&gt;" style="text;html=1;strokeColor=none;fillColor=none;align=center;verticalAlign=middle;whiteSpace=wrap;rounded=0;fillStyle=zigzag-line;" parent="1" vertex="1">
                    <mxGeometry x="305" y="85" width="190" height="30" as="geometry"/>
                </mxCell>
                <mxCell id="12" value="Species" style="rounded=0;whiteSpace=wrap;html=1;fillStyle=zigzag-line;fontSize=16;fillColor=none;" parent="1" vertex="1">
                    <mxGeometry x="290" y="450" width="100" height="20" as="geometry"/>
                </mxCell>
                <mxCell id="13" value="Color" style="rounded=0;whiteSpace=wrap;html=1;fillStyle=zigzag-line;fontSize=16;fillColor=none;" parent="1" vertex="1">
                    <mxGeometry x="290" y="480" width="100" height="20" as="geometry"/>
                </mxCell>
                <mxCell id="14" value="Gender" style="rounded=0;whiteSpace=wrap;html=1;fillStyle=zigzag-line;fontSize=16;fillColor=none;" parent="1" vertex="1">
                    <mxGeometry x="290" y="510" width="100" height="20" as="geometry"/>
                </mxCell>
                <mxCell id="20" value="Cloud" style="rounded=0;whiteSpace=wrap;html=1;fillStyle=zigzag-line;fontSize=16;fillColor=none;" parent="1" vertex="1">
                    <mxGeometry x="410" y="450" width="100" height="20" as="geometry"/>
                </mxCell>
                <mxCell id="21" value="Purple" style="rounded=0;whiteSpace=wrap;html=1;fillStyle=zigzag-line;fontSize=16;fillColor=none;" parent="1" vertex="1">
                    <mxGeometry x="410" y="480" width="100" height="20" as="geometry"/>
                </mxCell>
                <mxCell id="22" value="Male" style="rounded=0;whiteSpace=wrap;html=1;fillStyle=zigzag-line;fontSize=16;fillColor=none;" parent="1" vertex="1">
                    <mxGeometry x="410" y="510" width="100" height="20" as="geometry"/>
                </mxCell>
                <mxCell id="23" value="Hunger: 10 -- Sleepiness: 5 -- Boredom: 1" style="rounded=0;whiteSpace=wrap;html=1;fillStyle=zigzag-line;fontSize=16;fillColor=none;" parent="1" vertex="1">
                    <mxGeometry x="160" y="560" width="480" height="40" as="geometry"/>
                </mxCell>
                <mxCell id="25" value="&amp;nbsp;Feed" style="rounded=0;whiteSpace=wrap;html=1;fillStyle=zigzag-line;fontSize=16;fillColor=none;" parent="1" vertex="1">
                    <mxGeometry x="210" y="630" width="110" height="100" as="geometry"/>
                </mxCell>
                <mxCell id="26" value="Play" style="rounded=0;whiteSpace=wrap;html=1;fillStyle=zigzag-line;fontSize=16;fillColor=none;" parent="1" vertex="1">
                    <mxGeometry x="480" y="630" width="110" height="100" as="geometry"/>
                </mxCell>
                <mxCell id="27" value="Lights" style="rounded=0;whiteSpace=wrap;html=1;fillStyle=zigzag-line;fontSize=16;fillColor=none;" parent="1" vertex="1">
                    <mxGeometry x="345" y="630" width="110" height="100" as="geometry"/>
                </mxCell>
            </root>
        </mxGraphModel>
    </diagram>
</mxfile>